M48
;DRILL file {KiCad (5.0.1)-3} date 06/04/19 09:49:11
;FORMAT={-:-/ absolute / inch / decimal}
FMAT,2
INCH,TZ
T1C0.0059
T2C0.0394
%
G90
G05
M72
T1
X4.189Y-4.0551
X4.189Y-4.0787
X5.1181Y-3.7795
X5.1181Y-4.1929
X5.1417Y-3.9213
X5.1417Y-3.9606
X5.1575Y-3.9921
X5.1654Y-3.9449
X5.1673Y-4.0256
X5.1969Y-4.1929
X5.2559Y-3.9764
X5.2953Y-4.1929
X5.3051Y-4.1043
X5.3346Y-3.878
X5.3346Y-3.9173
X5.3543Y-4.1831
X5.374Y-4.0551
X5.3937Y-3.878
X5.3937Y-3.9173
X5.4429Y-4.0846
X5.4528Y-3.878
X5.4528Y-3.9173
X5.4823Y-4.0846
T2
X5.4311Y-3.9843
X5.4331Y-3.8031
X5.4331Y-4.1575
T0
M30
