G04 #@! TF.GenerationSoftware,KiCad,Pcbnew,(5.0.1)-3*
G04 #@! TF.CreationDate,2019-06-04T09:49:05+08:00*
G04 #@! TF.ProjectId,test-jig-light-sensor,746573742D6A69672D6C696768742D73,rev?*
G04 #@! TF.SameCoordinates,Original*
G04 #@! TF.FileFunction,Copper,L2,Bot,Signal*
G04 #@! TF.FilePolarity,Positive*
%FSLAX46Y46*%
G04 Gerber Fmt 4.6, Leading zero omitted, Abs format (unit mm)*
G04 Created by KiCad (PCBNEW (5.0.1)-3) date 06/04/19 09:49:05*
%MOMM*%
%LPD*%
G01*
G04 APERTURE LIST*
G04 #@! TA.AperFunction,ComponentPad*
%ADD10R,1.700000X1.700000*%
G04 #@! TD*
G04 #@! TA.AperFunction,ViaPad*
%ADD11C,0.350000*%
G04 #@! TD*
G04 #@! TA.AperFunction,Conductor*
%ADD12C,0.100000*%
G04 #@! TD*
G04 APERTURE END LIST*
D10*
G04 #@! TO.P,J1,1*
G04 #@! TO.N,Net-(J1-Pad1)*
X138000000Y-96600000D03*
G04 #@! TD*
G04 #@! TO.P,J3,1*
G04 #@! TO.N,GND*
X138000000Y-105600000D03*
G04 #@! TD*
G04 #@! TO.P,J2,1*
G04 #@! TO.N,+3V3*
X137950000Y-101200000D03*
G04 #@! TD*
D11*
G04 #@! TO.N,GND*
X130000000Y-96000000D03*
X135500000Y-98500000D03*
X137000000Y-99500000D03*
X135500000Y-99500000D03*
X130000000Y-106500000D03*
X132000000Y-106500000D03*
X134500000Y-106500000D03*
X138500000Y-99500000D03*
X137000000Y-98500000D03*
X138500000Y-98500000D03*
X139250000Y-103750000D03*
X138250000Y-103750000D03*
X136000000Y-106250000D03*
G04 #@! TO.N,+3V3*
X130600000Y-99600000D03*
X131200000Y-100200000D03*
X130600000Y-100600000D03*
X131000000Y-101400000D03*
X133500000Y-101000000D03*
X136500000Y-103000000D03*
X134750000Y-104250000D03*
X131250000Y-102250000D03*
X106400000Y-103600000D03*
X106400000Y-103000000D03*
G04 #@! TD*
D12*
G04 #@! TO.N,+3V3*
G36*
X133464645Y-100535355D02*
X133480866Y-100546194D01*
X133500000Y-100550000D01*
X138450000Y-100550000D01*
X138450000Y-101979290D01*
X135979290Y-104450000D01*
X128825000Y-104450000D01*
X128825000Y-103767991D01*
X128806143Y-103673191D01*
X128780695Y-103545254D01*
X128780695Y-103545252D01*
X128732167Y-103428096D01*
X128623780Y-103265885D01*
X128564002Y-103206108D01*
X128534114Y-103176220D01*
X128371904Y-103067833D01*
X128254748Y-103019305D01*
X128254746Y-103019305D01*
X128105119Y-102989542D01*
X128032009Y-102975000D01*
X107567991Y-102975000D01*
X107473191Y-102993857D01*
X107345254Y-103019305D01*
X107345252Y-103019305D01*
X107228096Y-103067833D01*
X107065885Y-103176220D01*
X107006108Y-103235998D01*
X106976220Y-103265886D01*
X106867833Y-103428096D01*
X106819305Y-103545252D01*
X106819305Y-103545254D01*
X106781245Y-103736595D01*
X106781245Y-103736596D01*
X106755797Y-103864532D01*
X106719241Y-103919241D01*
X106664531Y-103955798D01*
X106567992Y-103975000D01*
X105032008Y-103975000D01*
X104935468Y-103955797D01*
X104880759Y-103919241D01*
X104844202Y-103864531D01*
X104825000Y-103767991D01*
X104825000Y-101532008D01*
X104844202Y-101435469D01*
X104880759Y-101380759D01*
X104935468Y-101344203D01*
X105032008Y-101325000D01*
X106567992Y-101325000D01*
X106664531Y-101344202D01*
X106719241Y-101380759D01*
X106755797Y-101435468D01*
X106781245Y-101563403D01*
X106781245Y-101563404D01*
X106819305Y-101754746D01*
X106819305Y-101754748D01*
X106867833Y-101871904D01*
X106976220Y-102034114D01*
X107005510Y-102063404D01*
X107065885Y-102123780D01*
X107228096Y-102232167D01*
X107345252Y-102280695D01*
X107345254Y-102280695D01*
X107473191Y-102306143D01*
X107567991Y-102325000D01*
X128032009Y-102325000D01*
X128126809Y-102306143D01*
X128254746Y-102280695D01*
X128254748Y-102280695D01*
X128371904Y-102232167D01*
X128534114Y-102123780D01*
X128564002Y-102093892D01*
X128623780Y-102034115D01*
X128732167Y-101871904D01*
X128780695Y-101754748D01*
X128780695Y-101754746D01*
X128814792Y-101583326D01*
X128825000Y-101532009D01*
X128825000Y-100245710D01*
X130020710Y-99050000D01*
X131979290Y-99050000D01*
X133464645Y-100535355D01*
X133464645Y-100535355D01*
G37*
X133464645Y-100535355D02*
X133480866Y-100546194D01*
X133500000Y-100550000D01*
X138450000Y-100550000D01*
X138450000Y-101979290D01*
X135979290Y-104450000D01*
X128825000Y-104450000D01*
X128825000Y-103767991D01*
X128806143Y-103673191D01*
X128780695Y-103545254D01*
X128780695Y-103545252D01*
X128732167Y-103428096D01*
X128623780Y-103265885D01*
X128564002Y-103206108D01*
X128534114Y-103176220D01*
X128371904Y-103067833D01*
X128254748Y-103019305D01*
X128254746Y-103019305D01*
X128105119Y-102989542D01*
X128032009Y-102975000D01*
X107567991Y-102975000D01*
X107473191Y-102993857D01*
X107345254Y-103019305D01*
X107345252Y-103019305D01*
X107228096Y-103067833D01*
X107065885Y-103176220D01*
X107006108Y-103235998D01*
X106976220Y-103265886D01*
X106867833Y-103428096D01*
X106819305Y-103545252D01*
X106819305Y-103545254D01*
X106781245Y-103736595D01*
X106781245Y-103736596D01*
X106755797Y-103864532D01*
X106719241Y-103919241D01*
X106664531Y-103955798D01*
X106567992Y-103975000D01*
X105032008Y-103975000D01*
X104935468Y-103955797D01*
X104880759Y-103919241D01*
X104844202Y-103864531D01*
X104825000Y-103767991D01*
X104825000Y-101532008D01*
X104844202Y-101435469D01*
X104880759Y-101380759D01*
X104935468Y-101344203D01*
X105032008Y-101325000D01*
X106567992Y-101325000D01*
X106664531Y-101344202D01*
X106719241Y-101380759D01*
X106755797Y-101435468D01*
X106781245Y-101563403D01*
X106781245Y-101563404D01*
X106819305Y-101754746D01*
X106819305Y-101754748D01*
X106867833Y-101871904D01*
X106976220Y-102034114D01*
X107005510Y-102063404D01*
X107065885Y-102123780D01*
X107228096Y-102232167D01*
X107345252Y-102280695D01*
X107345254Y-102280695D01*
X107473191Y-102306143D01*
X107567991Y-102325000D01*
X128032009Y-102325000D01*
X128126809Y-102306143D01*
X128254746Y-102280695D01*
X128254748Y-102280695D01*
X128371904Y-102232167D01*
X128534114Y-102123780D01*
X128564002Y-102093892D01*
X128623780Y-102034115D01*
X128732167Y-101871904D01*
X128780695Y-101754748D01*
X128780695Y-101754746D01*
X128814792Y-101583326D01*
X128825000Y-101532009D01*
X128825000Y-100245710D01*
X130020710Y-99050000D01*
X131979290Y-99050000D01*
X133464645Y-100535355D01*
G04 #@! TO.N,GND*
G36*
X139764531Y-94844202D02*
X139819241Y-94880759D01*
X139855797Y-94935468D01*
X139875001Y-95032013D01*
X139875000Y-106967992D01*
X139855797Y-107064532D01*
X139819241Y-107119241D01*
X139764531Y-107155798D01*
X139667992Y-107175000D01*
X129032008Y-107175000D01*
X128935468Y-107155797D01*
X128880759Y-107119241D01*
X128844202Y-107064531D01*
X128825000Y-106967992D01*
X128825000Y-104750000D01*
X136000000Y-104750000D01*
X136095671Y-104730970D01*
X136176777Y-104676777D01*
X138548657Y-102304897D01*
X138800000Y-102304897D01*
X138897545Y-102285494D01*
X138980239Y-102230239D01*
X139035494Y-102147545D01*
X139054897Y-102050000D01*
X139054897Y-100350000D01*
X139035494Y-100252455D01*
X138980239Y-100169761D01*
X138897545Y-100114506D01*
X138800000Y-100095103D01*
X137100000Y-100095103D01*
X137002455Y-100114506D01*
X136919761Y-100169761D01*
X136866146Y-100250000D01*
X133603554Y-100250000D01*
X132176777Y-98823223D01*
X132095671Y-98769030D01*
X132000000Y-98750000D01*
X130000000Y-98750000D01*
X129904329Y-98769030D01*
X129823223Y-98823223D01*
X128825000Y-99821446D01*
X128825000Y-95750000D01*
X136895103Y-95750000D01*
X136895103Y-97450000D01*
X136914506Y-97547545D01*
X136969761Y-97630239D01*
X137052455Y-97685494D01*
X137150000Y-97704897D01*
X138850000Y-97704897D01*
X138947545Y-97685494D01*
X139030239Y-97630239D01*
X139085494Y-97547545D01*
X139104897Y-97450000D01*
X139104897Y-95750000D01*
X139085494Y-95652455D01*
X139030239Y-95569761D01*
X138947545Y-95514506D01*
X138850000Y-95495103D01*
X137150000Y-95495103D01*
X137052455Y-95514506D01*
X136969761Y-95569761D01*
X136914506Y-95652455D01*
X136895103Y-95750000D01*
X128825000Y-95750000D01*
X128825000Y-95032008D01*
X128844202Y-94935469D01*
X128880759Y-94880759D01*
X128935468Y-94844203D01*
X129032008Y-94825000D01*
X139667992Y-94825000D01*
X139764531Y-94844202D01*
X139764531Y-94844202D01*
G37*
X139764531Y-94844202D02*
X139819241Y-94880759D01*
X139855797Y-94935468D01*
X139875001Y-95032013D01*
X139875000Y-106967992D01*
X139855797Y-107064532D01*
X139819241Y-107119241D01*
X139764531Y-107155798D01*
X139667992Y-107175000D01*
X129032008Y-107175000D01*
X128935468Y-107155797D01*
X128880759Y-107119241D01*
X128844202Y-107064531D01*
X128825000Y-106967992D01*
X128825000Y-104750000D01*
X136000000Y-104750000D01*
X136095671Y-104730970D01*
X136176777Y-104676777D01*
X138548657Y-102304897D01*
X138800000Y-102304897D01*
X138897545Y-102285494D01*
X138980239Y-102230239D01*
X139035494Y-102147545D01*
X139054897Y-102050000D01*
X139054897Y-100350000D01*
X139035494Y-100252455D01*
X138980239Y-100169761D01*
X138897545Y-100114506D01*
X138800000Y-100095103D01*
X137100000Y-100095103D01*
X137002455Y-100114506D01*
X136919761Y-100169761D01*
X136866146Y-100250000D01*
X133603554Y-100250000D01*
X132176777Y-98823223D01*
X132095671Y-98769030D01*
X132000000Y-98750000D01*
X130000000Y-98750000D01*
X129904329Y-98769030D01*
X129823223Y-98823223D01*
X128825000Y-99821446D01*
X128825000Y-95750000D01*
X136895103Y-95750000D01*
X136895103Y-97450000D01*
X136914506Y-97547545D01*
X136969761Y-97630239D01*
X137052455Y-97685494D01*
X137150000Y-97704897D01*
X138850000Y-97704897D01*
X138947545Y-97685494D01*
X139030239Y-97630239D01*
X139085494Y-97547545D01*
X139104897Y-97450000D01*
X139104897Y-95750000D01*
X139085494Y-95652455D01*
X139030239Y-95569761D01*
X138947545Y-95514506D01*
X138850000Y-95495103D01*
X137150000Y-95495103D01*
X137052455Y-95514506D01*
X136969761Y-95569761D01*
X136914506Y-95652455D01*
X136895103Y-95750000D01*
X128825000Y-95750000D01*
X128825000Y-95032008D01*
X128844202Y-94935469D01*
X128880759Y-94880759D01*
X128935468Y-94844203D01*
X129032008Y-94825000D01*
X139667992Y-94825000D01*
X139764531Y-94844202D01*
G04 #@! TD*
M02*
