G04 #@! TF.GenerationSoftware,KiCad,Pcbnew,(5.0.1)-3*
G04 #@! TF.CreationDate,2019-06-04T09:49:05+08:00*
G04 #@! TF.ProjectId,test-jig-light-sensor,746573742D6A69672D6C696768742D73,rev?*
G04 #@! TF.SameCoordinates,Original*
G04 #@! TF.FileFunction,Profile,NP*
%FSLAX46Y46*%
G04 Gerber Fmt 4.6, Leading zero omitted, Abs format (unit mm)*
G04 Created by KiCad (PCBNEW (5.0.1)-3) date 06/04/19 09:49:05*
%MOMM*%
%LPD*%
G01*
G04 APERTURE LIST*
%ADD10C,0.150000*%
G04 APERTURE END LIST*
D10*
X106600000Y-101000000D02*
X105000000Y-101000000D01*
X107600000Y-102000000D02*
G75*
G02X107100000Y-101500000I0J500000D01*
G01*
X106600000Y-101000000D02*
G75*
G02X107100000Y-101500000I0J-500000D01*
G01*
X106600000Y-104300000D02*
X105000000Y-104300000D01*
X107100000Y-103800000D02*
G75*
G02X106600000Y-104300000I-500000J0D01*
G01*
X107100000Y-103800000D02*
G75*
G02X107600000Y-103300000I500000J0D01*
G01*
X139700000Y-94500000D02*
G75*
G02X140200000Y-95000000I0J-500000D01*
G01*
X128000000Y-103300000D02*
G75*
G02X128500000Y-103800000I0J-500000D01*
G01*
X128500000Y-95000000D02*
G75*
G02X129000000Y-94500000I500000J0D01*
G01*
X129000000Y-107500000D02*
G75*
G02X128500000Y-107000000I0J500000D01*
G01*
X128500000Y-101500000D02*
G75*
G02X128000000Y-102000000I-500000J0D01*
G01*
X140200000Y-107000000D02*
G75*
G02X139700000Y-107500000I-500000J0D01*
G01*
X104500000Y-101500000D02*
G75*
G02X105000000Y-101000000I500000J0D01*
G01*
X105000000Y-104300000D02*
G75*
G02X104500000Y-103800000I0J500000D01*
G01*
X128000000Y-102000000D02*
X107600000Y-102000000D01*
X128500000Y-95000000D02*
X128500000Y-101500000D01*
X139700000Y-94500000D02*
X129000000Y-94500000D01*
X140200000Y-107000000D02*
X140200000Y-95000000D01*
X129000000Y-107500000D02*
X139700000Y-107500000D01*
X128500000Y-103800000D02*
X128500000Y-107000000D01*
X107600000Y-103300000D02*
X128000000Y-103300000D01*
X104500000Y-101500000D02*
X104500000Y-103800000D01*
M02*
