G04 #@! TF.GenerationSoftware,KiCad,Pcbnew,(5.0.1)-3*
G04 #@! TF.CreationDate,2019-06-04T09:49:05+08:00*
G04 #@! TF.ProjectId,test-jig-light-sensor,746573742D6A69672D6C696768742D73,rev?*
G04 #@! TF.SameCoordinates,Original*
G04 #@! TF.FileFunction,Copper,L1,Top,Signal*
G04 #@! TF.FilePolarity,Positive*
%FSLAX46Y46*%
G04 Gerber Fmt 4.6, Leading zero omitted, Abs format (unit mm)*
G04 Created by KiCad (PCBNEW (5.0.1)-3) date 06/04/19 09:49:05*
%MOMM*%
%LPD*%
G01*
G04 APERTURE LIST*
G04 #@! TA.AperFunction,ComponentPad*
%ADD10R,1.700000X1.700000*%
G04 #@! TD*
G04 #@! TA.AperFunction,SMDPad,CuDef*
%ADD11R,0.700000X1.000000*%
G04 #@! TD*
G04 #@! TA.AperFunction,SMDPad,CuDef*
%ADD12R,0.750000X0.800000*%
G04 #@! TD*
G04 #@! TA.AperFunction,SMDPad,CuDef*
%ADD13R,0.900000X0.500000*%
G04 #@! TD*
G04 #@! TA.AperFunction,SMDPad,CuDef*
%ADD14R,0.500000X0.900000*%
G04 #@! TD*
G04 #@! TA.AperFunction,SMDPad,CuDef*
%ADD15R,0.800000X0.800000*%
G04 #@! TD*
G04 #@! TA.AperFunction,ViaPad*
%ADD16C,0.350000*%
G04 #@! TD*
G04 #@! TA.AperFunction,Conductor*
%ADD17C,0.300000*%
G04 #@! TD*
G04 #@! TA.AperFunction,Conductor*
%ADD18C,0.500000*%
G04 #@! TD*
G04 #@! TA.AperFunction,Conductor*
%ADD19C,0.250000*%
G04 #@! TD*
G04 #@! TA.AperFunction,Conductor*
%ADD20C,0.200000*%
G04 #@! TD*
G04 #@! TA.AperFunction,Conductor*
%ADD21C,0.100000*%
G04 #@! TD*
G04 APERTURE END LIST*
D10*
G04 #@! TO.P,J1,1*
G04 #@! TO.N,Net-(J1-Pad1)*
X138000000Y-96600000D03*
G04 #@! TD*
G04 #@! TO.P,J3,1*
G04 #@! TO.N,GND*
X138000000Y-105600000D03*
G04 #@! TD*
G04 #@! TO.P,J2,1*
G04 #@! TO.N,+3V3*
X137950000Y-101200000D03*
G04 #@! TD*
D11*
G04 #@! TO.P,U1,1*
G04 #@! TO.N,/LIGHT_AMP*
X134200000Y-99250000D03*
G04 #@! TO.P,U1,2*
G04 #@! TO.N,GND*
X133250000Y-99250000D03*
G04 #@! TO.P,U1,3*
G04 #@! TO.N,Net-(C2-Pad1)*
X132300000Y-99250000D03*
G04 #@! TO.P,U1,4*
G04 #@! TO.N,Net-(R4-Pad1)*
X132300000Y-101850000D03*
G04 #@! TO.P,U1,5*
G04 #@! TO.N,+3V3*
X134200000Y-101850000D03*
G04 #@! TD*
D12*
G04 #@! TO.P,C3,1*
G04 #@! TO.N,GND*
X135750000Y-100750000D03*
G04 #@! TO.P,C3,2*
G04 #@! TO.N,+3V3*
X135750000Y-102250000D03*
G04 #@! TD*
G04 #@! TO.P,C2,2*
G04 #@! TO.N,/LIGHT_RAW*
X129400000Y-101350000D03*
G04 #@! TO.P,C2,1*
G04 #@! TO.N,Net-(C2-Pad1)*
X129400000Y-99850000D03*
G04 #@! TD*
G04 #@! TO.P,C1,1*
G04 #@! TO.N,/LIGHT_RAW*
X131000000Y-103500000D03*
G04 #@! TO.P,C1,2*
G04 #@! TO.N,GND*
X131000000Y-105000000D03*
G04 #@! TD*
D13*
G04 #@! TO.P,R8,1*
G04 #@! TO.N,/LIGHT_AMP*
X135500000Y-97450000D03*
G04 #@! TO.P,R8,2*
G04 #@! TO.N,Net-(J1-Pad1)*
X135500000Y-95950000D03*
G04 #@! TD*
G04 #@! TO.P,R7,2*
G04 #@! TO.N,/LIGHT_AMP*
X135500000Y-105000000D03*
G04 #@! TO.P,R7,1*
G04 #@! TO.N,Net-(R4-Pad1)*
X135500000Y-103500000D03*
G04 #@! TD*
D14*
G04 #@! TO.P,R6,1*
G04 #@! TO.N,Net-(C2-Pad1)*
X132500000Y-97250000D03*
G04 #@! TO.P,R6,2*
G04 #@! TO.N,/LIGHT_AMP*
X134000000Y-97250000D03*
G04 #@! TD*
D13*
G04 #@! TO.P,R5,2*
G04 #@! TO.N,Net-(R4-Pad1)*
X134000000Y-103500000D03*
G04 #@! TO.P,R5,1*
G04 #@! TO.N,GND*
X134000000Y-105000000D03*
G04 #@! TD*
G04 #@! TO.P,R4,1*
G04 #@! TO.N,Net-(R4-Pad1)*
X132500000Y-105100000D03*
G04 #@! TO.P,R4,2*
G04 #@! TO.N,+3V3*
X132500000Y-103600000D03*
G04 #@! TD*
G04 #@! TO.P,R3,2*
G04 #@! TO.N,Net-(C2-Pad1)*
X131100000Y-97050000D03*
G04 #@! TO.P,R3,1*
G04 #@! TO.N,GND*
X131100000Y-95550000D03*
G04 #@! TD*
D14*
G04 #@! TO.P,R2,1*
G04 #@! TO.N,Net-(C2-Pad1)*
X129250000Y-98400000D03*
G04 #@! TO.P,R2,2*
G04 #@! TO.N,+3V3*
X130750000Y-98400000D03*
G04 #@! TD*
D13*
G04 #@! TO.P,R1,2*
G04 #@! TO.N,/LIGHT_RAW*
X129450000Y-102700000D03*
G04 #@! TO.P,R1,1*
G04 #@! TO.N,GND*
X129450000Y-104200000D03*
G04 #@! TD*
D15*
G04 #@! TO.P,Q1,1*
G04 #@! TO.N,+3V3*
X105400000Y-103400000D03*
G04 #@! TO.P,Q1,2*
G04 #@! TO.N,/LIGHT_RAW*
X105400000Y-101900000D03*
G04 #@! TD*
D16*
G04 #@! TO.N,GND*
X130000000Y-96000000D03*
X135500000Y-98500000D03*
X137000000Y-99500000D03*
X135500000Y-99500000D03*
X130000000Y-106500000D03*
X132000000Y-106500000D03*
X134500000Y-106500000D03*
X138500000Y-99500000D03*
X137000000Y-98500000D03*
X138500000Y-98500000D03*
X139250000Y-103750000D03*
X138250000Y-103750000D03*
X136000000Y-106250000D03*
G04 #@! TO.N,+3V3*
X130600000Y-99600000D03*
X131200000Y-100200000D03*
X130600000Y-100600000D03*
X131000000Y-101400000D03*
X133500000Y-101000000D03*
X136500000Y-103000000D03*
X134750000Y-104250000D03*
X131250000Y-102250000D03*
X106400000Y-103600000D03*
X106400000Y-103000000D03*
G04 #@! TD*
D17*
G04 #@! TO.N,GND*
X132500000Y-95550000D02*
X133250000Y-96300000D01*
X131100000Y-95550000D02*
X132500000Y-95550000D01*
D18*
X133250000Y-99250000D02*
X133250000Y-96489998D01*
X133250000Y-98250000D02*
X133250000Y-99250000D01*
X133250000Y-96489998D02*
X133250000Y-98250000D01*
X132310002Y-95550000D02*
X133250000Y-96489998D01*
X131100000Y-95550000D02*
X132310002Y-95550000D01*
D17*
X134000000Y-105550000D02*
X133849999Y-105700001D01*
X133849999Y-105700001D02*
X131675000Y-105700000D01*
X134000000Y-105000000D02*
X134000000Y-105550000D01*
X131000000Y-105025000D02*
X131000000Y-105000000D01*
X130800000Y-104800000D02*
X131000000Y-105000000D01*
X129450000Y-104800000D02*
X130800000Y-104800000D01*
X131675000Y-105700000D02*
X131000000Y-105025000D01*
D18*
X130125000Y-105000000D02*
X131000000Y-105000000D01*
X129500000Y-105000000D02*
X130125000Y-105000000D01*
X129450000Y-104950000D02*
X129500000Y-105000000D01*
X129450000Y-104200000D02*
X129450000Y-104950000D01*
G04 #@! TO.N,Net-(C2-Pad1)*
X129250000Y-99950000D02*
X129400000Y-100100000D01*
X129250000Y-98500000D02*
X129250000Y-99950000D01*
X130700000Y-97050000D02*
X131100000Y-97050000D01*
X129250000Y-98500000D02*
X130700000Y-97050000D01*
X132300000Y-97050000D02*
X132500000Y-97250000D01*
X132300000Y-98250000D02*
X131100000Y-97050000D01*
X132300000Y-99250000D02*
X132300000Y-98250000D01*
X132500000Y-98400000D02*
X132300000Y-98600000D01*
X132300000Y-98600000D02*
X132300000Y-99250000D01*
X132500000Y-97750000D02*
X131800000Y-97050000D01*
X132500000Y-97800000D02*
X132500000Y-97750000D01*
X131800000Y-97050000D02*
X132300000Y-97050000D01*
X131100000Y-97050000D02*
X131800000Y-97050000D01*
X132500000Y-97800000D02*
X132500000Y-98400000D01*
X132500000Y-97250000D02*
X132500000Y-97800000D01*
G04 #@! TO.N,Net-(R4-Pad1)*
X135500000Y-103500000D02*
X134000000Y-103500000D01*
X132350000Y-101850000D02*
X134000000Y-103500000D01*
X132300000Y-101850000D02*
X132350000Y-101850000D01*
X134000000Y-103600000D02*
X132500000Y-105100000D01*
X134000000Y-103500000D02*
X134000000Y-103600000D01*
G04 #@! TO.N,+3V3*
X134875000Y-102250000D02*
X134500000Y-101875000D01*
X135750000Y-102250000D02*
X134875000Y-102250000D01*
X134225000Y-101875000D02*
X134200000Y-101850000D01*
X134500000Y-101875000D02*
X134225000Y-101875000D01*
X133860037Y-101850000D02*
X134200000Y-101850000D01*
X132199999Y-100899999D02*
X132910036Y-100899999D01*
X130750000Y-98500000D02*
X131200000Y-99900000D01*
X130750000Y-99450000D02*
X131200000Y-99900000D01*
X131200000Y-99900000D02*
X132199999Y-100899999D01*
D19*
X131724990Y-104149991D02*
X131800000Y-104225001D01*
X131724990Y-102864988D02*
X131724990Y-104149991D01*
X131200000Y-102339998D02*
X131724990Y-102864988D01*
X131200000Y-99900000D02*
X131200000Y-101800000D01*
D18*
X132910036Y-100899999D02*
X133860037Y-101850000D01*
X131200000Y-99900000D02*
X130750000Y-99450000D01*
D19*
X131200000Y-101800000D02*
X131200000Y-102339998D01*
D20*
G04 #@! TO.N,/LIGHT_RAW*
X107202434Y-102402434D02*
X106700000Y-101900000D01*
X128622566Y-102402434D02*
X107202434Y-102402434D01*
X129400000Y-101625000D02*
X128622566Y-102402434D01*
X129400000Y-101600000D02*
X129400000Y-101625000D01*
D18*
X106700000Y-101900000D02*
X105400000Y-101900000D01*
X129400000Y-101900000D02*
X131000000Y-103500000D01*
X129400000Y-101350000D02*
X129400000Y-101900000D01*
X129450000Y-101400000D02*
X129400000Y-101350000D01*
X129450000Y-102700000D02*
X129450000Y-101400000D01*
G04 #@! TO.N,Net-(J1-Pad1)*
X137350000Y-95950000D02*
X138000000Y-96600000D01*
X135500000Y-95950000D02*
X137350000Y-95950000D01*
G04 #@! TO.N,/LIGHT_AMP*
X134200000Y-98000000D02*
X134200000Y-98500000D01*
X134000000Y-97800000D02*
X134200000Y-98000000D01*
X134000000Y-97250000D02*
X134000000Y-97800000D01*
X134200000Y-98500000D02*
X134200000Y-99250000D01*
X134200000Y-97450000D02*
X134000000Y-97250000D01*
X135500000Y-97450000D02*
X134200000Y-97450000D01*
D20*
X134200000Y-99950000D02*
X134200000Y-99250000D01*
X139040001Y-100049999D02*
X139100001Y-100109999D01*
X134200000Y-99250000D02*
X134200000Y-100515002D01*
X134200000Y-100515002D02*
X135234997Y-101549999D01*
X135234997Y-101549999D02*
X136450001Y-101549999D01*
X136450001Y-101549999D02*
X136450001Y-100349999D01*
X136450001Y-100349999D02*
X136750001Y-100049999D01*
X136750001Y-100049999D02*
X139040001Y-100049999D01*
X139100001Y-102290001D02*
X139100001Y-100109999D01*
X139040001Y-102350001D02*
X139100001Y-102290001D01*
X138349999Y-102350001D02*
X139040001Y-102350001D01*
X135700000Y-105000000D02*
X138349999Y-102350001D01*
X135500000Y-105000000D02*
X135700000Y-105000000D01*
G04 #@! TD*
D21*
G04 #@! TO.N,+3V3*
G36*
X131800001Y-98457108D02*
X131800001Y-98549555D01*
X131769761Y-98569761D01*
X131714506Y-98652455D01*
X131695103Y-98750000D01*
X131695103Y-99750000D01*
X131714506Y-99847545D01*
X131769761Y-99930239D01*
X131852455Y-99985494D01*
X131950000Y-100004897D01*
X132650000Y-100004897D01*
X132747545Y-99985494D01*
X132775000Y-99967149D01*
X132802455Y-99985494D01*
X132834042Y-99991777D01*
X133963003Y-101233634D01*
X133978690Y-101245232D01*
X133995848Y-101249827D01*
X134480215Y-101290191D01*
X134963139Y-101773116D01*
X134982662Y-101802334D01*
X135011880Y-101821857D01*
X135011882Y-101821859D01*
X135086780Y-101871904D01*
X135098434Y-101879691D01*
X135200529Y-101899999D01*
X135200533Y-101899999D01*
X135234997Y-101906854D01*
X135269461Y-101899999D01*
X136415533Y-101899999D01*
X136450001Y-101906855D01*
X136484468Y-101899999D01*
X136484469Y-101899999D01*
X136586564Y-101879691D01*
X136702336Y-101802334D01*
X136779693Y-101686562D01*
X136806857Y-101549999D01*
X136800001Y-101515531D01*
X136800001Y-100494972D01*
X136894975Y-100399999D01*
X138750002Y-100399999D01*
X138750001Y-102000001D01*
X138384463Y-102000001D01*
X138349999Y-101993146D01*
X138315535Y-102000001D01*
X138315531Y-102000001D01*
X138213436Y-102020309D01*
X138126884Y-102078141D01*
X138126882Y-102078143D01*
X138097664Y-102097666D01*
X138078141Y-102126884D01*
X135709924Y-104495103D01*
X135050000Y-104495103D01*
X134952455Y-104514506D01*
X134869761Y-104569761D01*
X134814506Y-104652455D01*
X134798249Y-104734182D01*
X134701497Y-104732909D01*
X134685494Y-104652455D01*
X134630239Y-104569761D01*
X134547545Y-104514506D01*
X134450000Y-104495103D01*
X133812004Y-104495103D01*
X134302210Y-104004897D01*
X134450000Y-104004897D01*
X134474619Y-104000000D01*
X135025381Y-104000000D01*
X135050000Y-104004897D01*
X135950000Y-104004897D01*
X136047545Y-103985494D01*
X136130239Y-103930239D01*
X136185494Y-103847545D01*
X136204897Y-103750000D01*
X136204897Y-103250000D01*
X136185494Y-103152455D01*
X136130239Y-103069761D01*
X136047545Y-103014506D01*
X135950000Y-102995103D01*
X135050000Y-102995103D01*
X135025381Y-103000000D01*
X134474619Y-103000000D01*
X134450000Y-102995103D01*
X134202210Y-102995103D01*
X132904897Y-101697791D01*
X132904897Y-101350000D01*
X132885494Y-101252455D01*
X132830239Y-101169761D01*
X132747545Y-101114506D01*
X132650000Y-101095103D01*
X131950000Y-101095103D01*
X131852455Y-101114506D01*
X131769761Y-101169761D01*
X131714506Y-101252455D01*
X131695103Y-101350000D01*
X131695103Y-102350000D01*
X131714506Y-102447545D01*
X131769761Y-102530239D01*
X131852455Y-102585494D01*
X131950000Y-102604897D01*
X132397791Y-102604897D01*
X133295103Y-103502210D01*
X133295103Y-103597790D01*
X132297791Y-104595103D01*
X132050000Y-104595103D01*
X131952455Y-104614506D01*
X131869761Y-104669761D01*
X131852613Y-104695424D01*
X131629897Y-104692494D01*
X131629897Y-104600000D01*
X131610494Y-104502455D01*
X131555239Y-104419761D01*
X131472545Y-104364506D01*
X131375000Y-104345103D01*
X130625000Y-104345103D01*
X130527455Y-104364506D01*
X130474335Y-104400000D01*
X130154897Y-104400000D01*
X130154897Y-103950000D01*
X130135494Y-103852455D01*
X130080239Y-103769761D01*
X129997545Y-103714506D01*
X129900000Y-103695103D01*
X129474624Y-103695103D01*
X129450000Y-103690205D01*
X129425376Y-103695103D01*
X129000000Y-103695103D01*
X128902455Y-103714506D01*
X128824696Y-103766463D01*
X128806143Y-103673191D01*
X128780695Y-103545254D01*
X128780695Y-103545252D01*
X128732167Y-103428096D01*
X128623780Y-103265885D01*
X128562791Y-103204897D01*
X128534114Y-103176220D01*
X128371904Y-103067833D01*
X128254748Y-103019305D01*
X128254746Y-103019305D01*
X128105119Y-102989542D01*
X128032009Y-102975000D01*
X107567991Y-102975000D01*
X107491551Y-102990205D01*
X107345254Y-103019305D01*
X107345252Y-103019305D01*
X107228096Y-103067833D01*
X107065885Y-103176220D01*
X107006108Y-103235998D01*
X106976220Y-103265886D01*
X106867833Y-103428096D01*
X106819305Y-103545252D01*
X106819305Y-103545254D01*
X106781245Y-103736595D01*
X106781245Y-103736596D01*
X106755797Y-103864532D01*
X106719241Y-103919241D01*
X106664531Y-103955798D01*
X106567992Y-103975000D01*
X105032008Y-103975000D01*
X104935468Y-103955797D01*
X104880759Y-103919241D01*
X104844202Y-103864531D01*
X104825000Y-103767991D01*
X104825000Y-102750000D01*
X107155729Y-102750000D01*
X107167966Y-102752434D01*
X107167970Y-102752434D01*
X107202434Y-102759289D01*
X107236898Y-102752434D01*
X128588102Y-102752434D01*
X128622566Y-102759289D01*
X128657030Y-102752434D01*
X128657034Y-102752434D01*
X128669271Y-102750000D01*
X128745103Y-102750000D01*
X128745103Y-102950000D01*
X128764506Y-103047545D01*
X128819761Y-103130239D01*
X128902455Y-103185494D01*
X129000000Y-103204897D01*
X129425376Y-103204897D01*
X129450000Y-103209795D01*
X129474624Y-103204897D01*
X129900000Y-103204897D01*
X129981566Y-103188672D01*
X130370103Y-103577210D01*
X130370103Y-103900000D01*
X130389506Y-103997545D01*
X130444761Y-104080239D01*
X130527455Y-104135494D01*
X130625000Y-104154897D01*
X131375000Y-104154897D01*
X131472545Y-104135494D01*
X131555239Y-104080239D01*
X131610494Y-103997545D01*
X131629897Y-103900000D01*
X131629897Y-103100000D01*
X131610494Y-103002455D01*
X131555239Y-102919761D01*
X131472545Y-102864506D01*
X131375000Y-102845103D01*
X131052210Y-102845103D01*
X130017820Y-101810714D01*
X130029897Y-101750000D01*
X130029897Y-100950000D01*
X130010494Y-100852455D01*
X130007808Y-100848435D01*
X130018777Y-100846340D01*
X130035081Y-100835627D01*
X130046045Y-100819490D01*
X130050000Y-100800000D01*
X130050000Y-98407106D01*
X130900000Y-97557107D01*
X131800001Y-98457108D01*
X131800001Y-98457108D01*
G37*
X131800001Y-98457108D02*
X131800001Y-98549555D01*
X131769761Y-98569761D01*
X131714506Y-98652455D01*
X131695103Y-98750000D01*
X131695103Y-99750000D01*
X131714506Y-99847545D01*
X131769761Y-99930239D01*
X131852455Y-99985494D01*
X131950000Y-100004897D01*
X132650000Y-100004897D01*
X132747545Y-99985494D01*
X132775000Y-99967149D01*
X132802455Y-99985494D01*
X132834042Y-99991777D01*
X133963003Y-101233634D01*
X133978690Y-101245232D01*
X133995848Y-101249827D01*
X134480215Y-101290191D01*
X134963139Y-101773116D01*
X134982662Y-101802334D01*
X135011880Y-101821857D01*
X135011882Y-101821859D01*
X135086780Y-101871904D01*
X135098434Y-101879691D01*
X135200529Y-101899999D01*
X135200533Y-101899999D01*
X135234997Y-101906854D01*
X135269461Y-101899999D01*
X136415533Y-101899999D01*
X136450001Y-101906855D01*
X136484468Y-101899999D01*
X136484469Y-101899999D01*
X136586564Y-101879691D01*
X136702336Y-101802334D01*
X136779693Y-101686562D01*
X136806857Y-101549999D01*
X136800001Y-101515531D01*
X136800001Y-100494972D01*
X136894975Y-100399999D01*
X138750002Y-100399999D01*
X138750001Y-102000001D01*
X138384463Y-102000001D01*
X138349999Y-101993146D01*
X138315535Y-102000001D01*
X138315531Y-102000001D01*
X138213436Y-102020309D01*
X138126884Y-102078141D01*
X138126882Y-102078143D01*
X138097664Y-102097666D01*
X138078141Y-102126884D01*
X135709924Y-104495103D01*
X135050000Y-104495103D01*
X134952455Y-104514506D01*
X134869761Y-104569761D01*
X134814506Y-104652455D01*
X134798249Y-104734182D01*
X134701497Y-104732909D01*
X134685494Y-104652455D01*
X134630239Y-104569761D01*
X134547545Y-104514506D01*
X134450000Y-104495103D01*
X133812004Y-104495103D01*
X134302210Y-104004897D01*
X134450000Y-104004897D01*
X134474619Y-104000000D01*
X135025381Y-104000000D01*
X135050000Y-104004897D01*
X135950000Y-104004897D01*
X136047545Y-103985494D01*
X136130239Y-103930239D01*
X136185494Y-103847545D01*
X136204897Y-103750000D01*
X136204897Y-103250000D01*
X136185494Y-103152455D01*
X136130239Y-103069761D01*
X136047545Y-103014506D01*
X135950000Y-102995103D01*
X135050000Y-102995103D01*
X135025381Y-103000000D01*
X134474619Y-103000000D01*
X134450000Y-102995103D01*
X134202210Y-102995103D01*
X132904897Y-101697791D01*
X132904897Y-101350000D01*
X132885494Y-101252455D01*
X132830239Y-101169761D01*
X132747545Y-101114506D01*
X132650000Y-101095103D01*
X131950000Y-101095103D01*
X131852455Y-101114506D01*
X131769761Y-101169761D01*
X131714506Y-101252455D01*
X131695103Y-101350000D01*
X131695103Y-102350000D01*
X131714506Y-102447545D01*
X131769761Y-102530239D01*
X131852455Y-102585494D01*
X131950000Y-102604897D01*
X132397791Y-102604897D01*
X133295103Y-103502210D01*
X133295103Y-103597790D01*
X132297791Y-104595103D01*
X132050000Y-104595103D01*
X131952455Y-104614506D01*
X131869761Y-104669761D01*
X131852613Y-104695424D01*
X131629897Y-104692494D01*
X131629897Y-104600000D01*
X131610494Y-104502455D01*
X131555239Y-104419761D01*
X131472545Y-104364506D01*
X131375000Y-104345103D01*
X130625000Y-104345103D01*
X130527455Y-104364506D01*
X130474335Y-104400000D01*
X130154897Y-104400000D01*
X130154897Y-103950000D01*
X130135494Y-103852455D01*
X130080239Y-103769761D01*
X129997545Y-103714506D01*
X129900000Y-103695103D01*
X129474624Y-103695103D01*
X129450000Y-103690205D01*
X129425376Y-103695103D01*
X129000000Y-103695103D01*
X128902455Y-103714506D01*
X128824696Y-103766463D01*
X128806143Y-103673191D01*
X128780695Y-103545254D01*
X128780695Y-103545252D01*
X128732167Y-103428096D01*
X128623780Y-103265885D01*
X128562791Y-103204897D01*
X128534114Y-103176220D01*
X128371904Y-103067833D01*
X128254748Y-103019305D01*
X128254746Y-103019305D01*
X128105119Y-102989542D01*
X128032009Y-102975000D01*
X107567991Y-102975000D01*
X107491551Y-102990205D01*
X107345254Y-103019305D01*
X107345252Y-103019305D01*
X107228096Y-103067833D01*
X107065885Y-103176220D01*
X107006108Y-103235998D01*
X106976220Y-103265886D01*
X106867833Y-103428096D01*
X106819305Y-103545252D01*
X106819305Y-103545254D01*
X106781245Y-103736595D01*
X106781245Y-103736596D01*
X106755797Y-103864532D01*
X106719241Y-103919241D01*
X106664531Y-103955798D01*
X106567992Y-103975000D01*
X105032008Y-103975000D01*
X104935468Y-103955797D01*
X104880759Y-103919241D01*
X104844202Y-103864531D01*
X104825000Y-103767991D01*
X104825000Y-102750000D01*
X107155729Y-102750000D01*
X107167966Y-102752434D01*
X107167970Y-102752434D01*
X107202434Y-102759289D01*
X107236898Y-102752434D01*
X128588102Y-102752434D01*
X128622566Y-102759289D01*
X128657030Y-102752434D01*
X128657034Y-102752434D01*
X128669271Y-102750000D01*
X128745103Y-102750000D01*
X128745103Y-102950000D01*
X128764506Y-103047545D01*
X128819761Y-103130239D01*
X128902455Y-103185494D01*
X129000000Y-103204897D01*
X129425376Y-103204897D01*
X129450000Y-103209795D01*
X129474624Y-103204897D01*
X129900000Y-103204897D01*
X129981566Y-103188672D01*
X130370103Y-103577210D01*
X130370103Y-103900000D01*
X130389506Y-103997545D01*
X130444761Y-104080239D01*
X130527455Y-104135494D01*
X130625000Y-104154897D01*
X131375000Y-104154897D01*
X131472545Y-104135494D01*
X131555239Y-104080239D01*
X131610494Y-103997545D01*
X131629897Y-103900000D01*
X131629897Y-103100000D01*
X131610494Y-103002455D01*
X131555239Y-102919761D01*
X131472545Y-102864506D01*
X131375000Y-102845103D01*
X131052210Y-102845103D01*
X130017820Y-101810714D01*
X130029897Y-101750000D01*
X130029897Y-100950000D01*
X130010494Y-100852455D01*
X130007808Y-100848435D01*
X130018777Y-100846340D01*
X130035081Y-100835627D01*
X130046045Y-100819490D01*
X130050000Y-100800000D01*
X130050000Y-98407106D01*
X130900000Y-97557107D01*
X131800001Y-98457108D01*
G04 #@! TO.N,GND*
G36*
X139764531Y-94844202D02*
X139819241Y-94880759D01*
X139855797Y-94935468D01*
X139875001Y-95032013D01*
X139875000Y-106967992D01*
X139855797Y-107064532D01*
X139819241Y-107119241D01*
X139764531Y-107155798D01*
X139667992Y-107175000D01*
X129032008Y-107175000D01*
X128935468Y-107155797D01*
X128880759Y-107119241D01*
X128844202Y-107064531D01*
X128825000Y-106967992D01*
X128825000Y-104955613D01*
X131795103Y-104994694D01*
X131795103Y-105350000D01*
X131814506Y-105447545D01*
X131869761Y-105530239D01*
X131952455Y-105585494D01*
X132050000Y-105604897D01*
X132475377Y-105604897D01*
X132500000Y-105609795D01*
X132524623Y-105604897D01*
X132950000Y-105604897D01*
X133047545Y-105585494D01*
X133130239Y-105530239D01*
X133185494Y-105447545D01*
X133204897Y-105350000D01*
X133204897Y-105102209D01*
X133292707Y-105014399D01*
X134795103Y-105034167D01*
X134795103Y-105250000D01*
X134814506Y-105347545D01*
X134869761Y-105430239D01*
X134952455Y-105485494D01*
X135050000Y-105504897D01*
X135950000Y-105504897D01*
X136047545Y-105485494D01*
X136130239Y-105430239D01*
X136185494Y-105347545D01*
X136204897Y-105250000D01*
X136204897Y-104990076D01*
X138494974Y-102700001D01*
X139005537Y-102700001D01*
X139040001Y-102706856D01*
X139074465Y-102700001D01*
X139074469Y-102700001D01*
X139176564Y-102679693D01*
X139233279Y-102641797D01*
X139316189Y-102621360D01*
X139392055Y-102560046D01*
X139438683Y-102474367D01*
X139448973Y-102377366D01*
X139445995Y-102344608D01*
X139450001Y-102324469D01*
X139450001Y-102324465D01*
X139456856Y-102290001D01*
X139450001Y-102255537D01*
X139450001Y-100144463D01*
X139456856Y-100109999D01*
X139450001Y-100075535D01*
X139450001Y-100075531D01*
X139429693Y-99973436D01*
X139352336Y-99857664D01*
X139323114Y-99838138D01*
X139311862Y-99826887D01*
X139292336Y-99797664D01*
X139176564Y-99720307D01*
X139074469Y-99699999D01*
X139074465Y-99699999D01*
X139040001Y-99693144D01*
X139005537Y-99699999D01*
X136784464Y-99699999D01*
X136750000Y-99693144D01*
X136715536Y-99699999D01*
X136715533Y-99699999D01*
X136613438Y-99720307D01*
X136497666Y-99797664D01*
X136478141Y-99826885D01*
X136343860Y-99961167D01*
X136304329Y-99969030D01*
X136223223Y-100023223D01*
X136169030Y-100104329D01*
X136158779Y-100155863D01*
X136120309Y-100213437D01*
X136093146Y-100349999D01*
X136100002Y-100384467D01*
X136100001Y-101124134D01*
X135231753Y-101051780D01*
X134550000Y-100370029D01*
X134550000Y-100004897D01*
X134647545Y-99985494D01*
X134730239Y-99930239D01*
X134785494Y-99847545D01*
X134804897Y-99750000D01*
X134804897Y-98750000D01*
X134785494Y-98652455D01*
X134730239Y-98569761D01*
X134700000Y-98549556D01*
X134700000Y-98049243D01*
X134709795Y-98000000D01*
X134699849Y-97950000D01*
X135025381Y-97950000D01*
X135050000Y-97954897D01*
X135950000Y-97954897D01*
X136047545Y-97935494D01*
X136130239Y-97880239D01*
X136185494Y-97797545D01*
X136204897Y-97700000D01*
X136204897Y-97200000D01*
X136185494Y-97102455D01*
X136130239Y-97019761D01*
X136047545Y-96964506D01*
X135950000Y-96945103D01*
X135050000Y-96945103D01*
X135025381Y-96950000D01*
X134504897Y-96950000D01*
X134504897Y-96800000D01*
X134485494Y-96702455D01*
X134430239Y-96619761D01*
X134347545Y-96564506D01*
X134250000Y-96545103D01*
X133750000Y-96545103D01*
X133652455Y-96564506D01*
X133569761Y-96619761D01*
X133514506Y-96702455D01*
X133495103Y-96800000D01*
X133495103Y-97225377D01*
X133490205Y-97250000D01*
X133495103Y-97274623D01*
X133495103Y-97700000D01*
X133500001Y-97724623D01*
X133500001Y-97750754D01*
X133490205Y-97800000D01*
X133520194Y-97950758D01*
X133529012Y-97995090D01*
X133639521Y-98160480D01*
X133681269Y-98188375D01*
X133700000Y-98207106D01*
X133700001Y-98450754D01*
X133700000Y-98450758D01*
X133700000Y-98549556D01*
X133669761Y-98569761D01*
X133614506Y-98652455D01*
X133595103Y-98750000D01*
X133595103Y-99750000D01*
X133614506Y-99847545D01*
X133669761Y-99930239D01*
X133752455Y-99985494D01*
X133850000Y-100004897D01*
X133850001Y-100004897D01*
X133850001Y-100480534D01*
X133843145Y-100515002D01*
X133870308Y-100651564D01*
X133907252Y-100706854D01*
X133947666Y-100767337D01*
X133976887Y-100786862D01*
X134151809Y-100961784D01*
X134118805Y-100959034D01*
X132904897Y-99623735D01*
X132904897Y-98750000D01*
X132896314Y-98706850D01*
X132970989Y-98595090D01*
X133000000Y-98449243D01*
X133009795Y-98400000D01*
X133000000Y-98350757D01*
X133000000Y-97799240D01*
X133009795Y-97749999D01*
X133002373Y-97712688D01*
X133004897Y-97700000D01*
X133004897Y-97274624D01*
X133009795Y-97250000D01*
X133004897Y-97225376D01*
X133004897Y-96800000D01*
X132985494Y-96702455D01*
X132930239Y-96619761D01*
X132847545Y-96564506D01*
X132750000Y-96545103D01*
X132324623Y-96545103D01*
X132300000Y-96540205D01*
X132275377Y-96545103D01*
X132250000Y-96545103D01*
X132225381Y-96550000D01*
X131849241Y-96550000D01*
X131800000Y-96540205D01*
X131750759Y-96550000D01*
X131574619Y-96550000D01*
X131550000Y-96545103D01*
X131124623Y-96545103D01*
X131100000Y-96540205D01*
X131075377Y-96545103D01*
X130724624Y-96545103D01*
X130700000Y-96540205D01*
X130675376Y-96545103D01*
X130650000Y-96545103D01*
X130552455Y-96564506D01*
X130541699Y-96571693D01*
X130504910Y-96579011D01*
X130339520Y-96689520D01*
X130311625Y-96731268D01*
X129347791Y-97695103D01*
X129000000Y-97695103D01*
X128902455Y-97714506D01*
X128825000Y-97766260D01*
X128825000Y-95700000D01*
X134795103Y-95700000D01*
X134795103Y-96200000D01*
X134814506Y-96297545D01*
X134869761Y-96380239D01*
X134952455Y-96435494D01*
X135050000Y-96454897D01*
X135950000Y-96454897D01*
X135974619Y-96450000D01*
X136895103Y-96450000D01*
X136895103Y-97450000D01*
X136914506Y-97547545D01*
X136969761Y-97630239D01*
X137052455Y-97685494D01*
X137150000Y-97704897D01*
X138850000Y-97704897D01*
X138947545Y-97685494D01*
X139030239Y-97630239D01*
X139085494Y-97547545D01*
X139104897Y-97450000D01*
X139104897Y-95750000D01*
X139085494Y-95652455D01*
X139030239Y-95569761D01*
X138947545Y-95514506D01*
X138850000Y-95495103D01*
X137569174Y-95495103D01*
X137545090Y-95479011D01*
X137399243Y-95450000D01*
X137399241Y-95450000D01*
X137350000Y-95440205D01*
X137300759Y-95450000D01*
X135974619Y-95450000D01*
X135950000Y-95445103D01*
X135050000Y-95445103D01*
X134952455Y-95464506D01*
X134869761Y-95519761D01*
X134814506Y-95602455D01*
X134795103Y-95700000D01*
X128825000Y-95700000D01*
X128825000Y-95032008D01*
X128844202Y-94935469D01*
X128880759Y-94880759D01*
X128935468Y-94844203D01*
X129032008Y-94825000D01*
X139667992Y-94825000D01*
X139764531Y-94844202D01*
X139764531Y-94844202D01*
G37*
X139764531Y-94844202D02*
X139819241Y-94880759D01*
X139855797Y-94935468D01*
X139875001Y-95032013D01*
X139875000Y-106967992D01*
X139855797Y-107064532D01*
X139819241Y-107119241D01*
X139764531Y-107155798D01*
X139667992Y-107175000D01*
X129032008Y-107175000D01*
X128935468Y-107155797D01*
X128880759Y-107119241D01*
X128844202Y-107064531D01*
X128825000Y-106967992D01*
X128825000Y-104955613D01*
X131795103Y-104994694D01*
X131795103Y-105350000D01*
X131814506Y-105447545D01*
X131869761Y-105530239D01*
X131952455Y-105585494D01*
X132050000Y-105604897D01*
X132475377Y-105604897D01*
X132500000Y-105609795D01*
X132524623Y-105604897D01*
X132950000Y-105604897D01*
X133047545Y-105585494D01*
X133130239Y-105530239D01*
X133185494Y-105447545D01*
X133204897Y-105350000D01*
X133204897Y-105102209D01*
X133292707Y-105014399D01*
X134795103Y-105034167D01*
X134795103Y-105250000D01*
X134814506Y-105347545D01*
X134869761Y-105430239D01*
X134952455Y-105485494D01*
X135050000Y-105504897D01*
X135950000Y-105504897D01*
X136047545Y-105485494D01*
X136130239Y-105430239D01*
X136185494Y-105347545D01*
X136204897Y-105250000D01*
X136204897Y-104990076D01*
X138494974Y-102700001D01*
X139005537Y-102700001D01*
X139040001Y-102706856D01*
X139074465Y-102700001D01*
X139074469Y-102700001D01*
X139176564Y-102679693D01*
X139233279Y-102641797D01*
X139316189Y-102621360D01*
X139392055Y-102560046D01*
X139438683Y-102474367D01*
X139448973Y-102377366D01*
X139445995Y-102344608D01*
X139450001Y-102324469D01*
X139450001Y-102324465D01*
X139456856Y-102290001D01*
X139450001Y-102255537D01*
X139450001Y-100144463D01*
X139456856Y-100109999D01*
X139450001Y-100075535D01*
X139450001Y-100075531D01*
X139429693Y-99973436D01*
X139352336Y-99857664D01*
X139323114Y-99838138D01*
X139311862Y-99826887D01*
X139292336Y-99797664D01*
X139176564Y-99720307D01*
X139074469Y-99699999D01*
X139074465Y-99699999D01*
X139040001Y-99693144D01*
X139005537Y-99699999D01*
X136784464Y-99699999D01*
X136750000Y-99693144D01*
X136715536Y-99699999D01*
X136715533Y-99699999D01*
X136613438Y-99720307D01*
X136497666Y-99797664D01*
X136478141Y-99826885D01*
X136343860Y-99961167D01*
X136304329Y-99969030D01*
X136223223Y-100023223D01*
X136169030Y-100104329D01*
X136158779Y-100155863D01*
X136120309Y-100213437D01*
X136093146Y-100349999D01*
X136100002Y-100384467D01*
X136100001Y-101124134D01*
X135231753Y-101051780D01*
X134550000Y-100370029D01*
X134550000Y-100004897D01*
X134647545Y-99985494D01*
X134730239Y-99930239D01*
X134785494Y-99847545D01*
X134804897Y-99750000D01*
X134804897Y-98750000D01*
X134785494Y-98652455D01*
X134730239Y-98569761D01*
X134700000Y-98549556D01*
X134700000Y-98049243D01*
X134709795Y-98000000D01*
X134699849Y-97950000D01*
X135025381Y-97950000D01*
X135050000Y-97954897D01*
X135950000Y-97954897D01*
X136047545Y-97935494D01*
X136130239Y-97880239D01*
X136185494Y-97797545D01*
X136204897Y-97700000D01*
X136204897Y-97200000D01*
X136185494Y-97102455D01*
X136130239Y-97019761D01*
X136047545Y-96964506D01*
X135950000Y-96945103D01*
X135050000Y-96945103D01*
X135025381Y-96950000D01*
X134504897Y-96950000D01*
X134504897Y-96800000D01*
X134485494Y-96702455D01*
X134430239Y-96619761D01*
X134347545Y-96564506D01*
X134250000Y-96545103D01*
X133750000Y-96545103D01*
X133652455Y-96564506D01*
X133569761Y-96619761D01*
X133514506Y-96702455D01*
X133495103Y-96800000D01*
X133495103Y-97225377D01*
X133490205Y-97250000D01*
X133495103Y-97274623D01*
X133495103Y-97700000D01*
X133500001Y-97724623D01*
X133500001Y-97750754D01*
X133490205Y-97800000D01*
X133520194Y-97950758D01*
X133529012Y-97995090D01*
X133639521Y-98160480D01*
X133681269Y-98188375D01*
X133700000Y-98207106D01*
X133700001Y-98450754D01*
X133700000Y-98450758D01*
X133700000Y-98549556D01*
X133669761Y-98569761D01*
X133614506Y-98652455D01*
X133595103Y-98750000D01*
X133595103Y-99750000D01*
X133614506Y-99847545D01*
X133669761Y-99930239D01*
X133752455Y-99985494D01*
X133850000Y-100004897D01*
X133850001Y-100004897D01*
X133850001Y-100480534D01*
X133843145Y-100515002D01*
X133870308Y-100651564D01*
X133907252Y-100706854D01*
X133947666Y-100767337D01*
X133976887Y-100786862D01*
X134151809Y-100961784D01*
X134118805Y-100959034D01*
X132904897Y-99623735D01*
X132904897Y-98750000D01*
X132896314Y-98706850D01*
X132970989Y-98595090D01*
X133000000Y-98449243D01*
X133009795Y-98400000D01*
X133000000Y-98350757D01*
X133000000Y-97799240D01*
X133009795Y-97749999D01*
X133002373Y-97712688D01*
X133004897Y-97700000D01*
X133004897Y-97274624D01*
X133009795Y-97250000D01*
X133004897Y-97225376D01*
X133004897Y-96800000D01*
X132985494Y-96702455D01*
X132930239Y-96619761D01*
X132847545Y-96564506D01*
X132750000Y-96545103D01*
X132324623Y-96545103D01*
X132300000Y-96540205D01*
X132275377Y-96545103D01*
X132250000Y-96545103D01*
X132225381Y-96550000D01*
X131849241Y-96550000D01*
X131800000Y-96540205D01*
X131750759Y-96550000D01*
X131574619Y-96550000D01*
X131550000Y-96545103D01*
X131124623Y-96545103D01*
X131100000Y-96540205D01*
X131075377Y-96545103D01*
X130724624Y-96545103D01*
X130700000Y-96540205D01*
X130675376Y-96545103D01*
X130650000Y-96545103D01*
X130552455Y-96564506D01*
X130541699Y-96571693D01*
X130504910Y-96579011D01*
X130339520Y-96689520D01*
X130311625Y-96731268D01*
X129347791Y-97695103D01*
X129000000Y-97695103D01*
X128902455Y-97714506D01*
X128825000Y-97766260D01*
X128825000Y-95700000D01*
X134795103Y-95700000D01*
X134795103Y-96200000D01*
X134814506Y-96297545D01*
X134869761Y-96380239D01*
X134952455Y-96435494D01*
X135050000Y-96454897D01*
X135950000Y-96454897D01*
X135974619Y-96450000D01*
X136895103Y-96450000D01*
X136895103Y-97450000D01*
X136914506Y-97547545D01*
X136969761Y-97630239D01*
X137052455Y-97685494D01*
X137150000Y-97704897D01*
X138850000Y-97704897D01*
X138947545Y-97685494D01*
X139030239Y-97630239D01*
X139085494Y-97547545D01*
X139104897Y-97450000D01*
X139104897Y-95750000D01*
X139085494Y-95652455D01*
X139030239Y-95569761D01*
X138947545Y-95514506D01*
X138850000Y-95495103D01*
X137569174Y-95495103D01*
X137545090Y-95479011D01*
X137399243Y-95450000D01*
X137399241Y-95450000D01*
X137350000Y-95440205D01*
X137300759Y-95450000D01*
X135974619Y-95450000D01*
X135950000Y-95445103D01*
X135050000Y-95445103D01*
X134952455Y-95464506D01*
X134869761Y-95519761D01*
X134814506Y-95602455D01*
X134795103Y-95700000D01*
X128825000Y-95700000D01*
X128825000Y-95032008D01*
X128844202Y-94935469D01*
X128880759Y-94880759D01*
X128935468Y-94844203D01*
X129032008Y-94825000D01*
X139667992Y-94825000D01*
X139764531Y-94844202D01*
G04 #@! TO.N,/LIGHT_RAW*
G36*
X129204910Y-100570988D02*
X129399999Y-100609795D01*
X129450000Y-100599849D01*
X129450000Y-102450000D01*
X104825000Y-102450000D01*
X104825000Y-101532008D01*
X104844202Y-101435469D01*
X104880759Y-101380759D01*
X104935468Y-101344203D01*
X105032008Y-101325000D01*
X106567992Y-101325000D01*
X106664531Y-101344202D01*
X106719241Y-101380759D01*
X106755797Y-101435468D01*
X106781245Y-101563403D01*
X106781245Y-101563404D01*
X106819305Y-101754746D01*
X106819305Y-101754748D01*
X106867833Y-101871904D01*
X106976220Y-102034114D01*
X107005510Y-102063404D01*
X107065885Y-102123780D01*
X107228096Y-102232167D01*
X107345252Y-102280695D01*
X107345254Y-102280695D01*
X107473191Y-102306143D01*
X107567991Y-102325000D01*
X128032009Y-102325000D01*
X128126809Y-102306143D01*
X128254746Y-102280695D01*
X128254748Y-102280695D01*
X128371904Y-102232167D01*
X128534114Y-102123780D01*
X128564002Y-102093892D01*
X128623780Y-102034115D01*
X128732167Y-101871904D01*
X128780695Y-101754748D01*
X128780695Y-101754746D01*
X128814792Y-101583326D01*
X128825000Y-101532009D01*
X128825000Y-100550000D01*
X129173499Y-100550000D01*
X129204910Y-100570988D01*
X129204910Y-100570988D01*
G37*
X129204910Y-100570988D02*
X129399999Y-100609795D01*
X129450000Y-100599849D01*
X129450000Y-102450000D01*
X104825000Y-102450000D01*
X104825000Y-101532008D01*
X104844202Y-101435469D01*
X104880759Y-101380759D01*
X104935468Y-101344203D01*
X105032008Y-101325000D01*
X106567992Y-101325000D01*
X106664531Y-101344202D01*
X106719241Y-101380759D01*
X106755797Y-101435468D01*
X106781245Y-101563403D01*
X106781245Y-101563404D01*
X106819305Y-101754746D01*
X106819305Y-101754748D01*
X106867833Y-101871904D01*
X106976220Y-102034114D01*
X107005510Y-102063404D01*
X107065885Y-102123780D01*
X107228096Y-102232167D01*
X107345252Y-102280695D01*
X107345254Y-102280695D01*
X107473191Y-102306143D01*
X107567991Y-102325000D01*
X128032009Y-102325000D01*
X128126809Y-102306143D01*
X128254746Y-102280695D01*
X128254748Y-102280695D01*
X128371904Y-102232167D01*
X128534114Y-102123780D01*
X128564002Y-102093892D01*
X128623780Y-102034115D01*
X128732167Y-101871904D01*
X128780695Y-101754748D01*
X128780695Y-101754746D01*
X128814792Y-101583326D01*
X128825000Y-101532009D01*
X128825000Y-100550000D01*
X129173499Y-100550000D01*
X129204910Y-100570988D01*
G04 #@! TD*
M02*
